# xmcd
#
# Track frame offsets: 
#        150
#        13755
#        24770
#        39612
#        51675
#        64447
#        79045
#        90402
#        103932
#        115260
#        127082
#        139175
#        150242
#        163747
#        177210
#        187682
#        201117
#        212325
#        223097
#        236817
#        248752
#        262415
#
# Disc length: 3695 seconds
#
# Revision: 2
# Processed by: cddbd v1.5.2PL0 Copyright (c) Steve Scherf et al.
# Submitted via: ExactAudioCopyFreeDBPlugin 1.0
#
DISCID=3c0e6d16
DTITLE=Various Artist - Honkers and Bar Walkers [Delmark Records]
DYEAR=1992
DGENRE=Rhythm and Blues
TTITLE0=Jimmy Forrest - Night Train
TTITLE1=Teddy Brannon - Everybody Get Together
TTITLE2=Teddy Brannon - Mixin' with Dixon
TTITLE3=Cozy Eggleston - Cozy's Beat
TTITLE4=Cozy Eggleston - Big Heavy (Blue Lights Boogie)
TTITLE5=Tab Smith - Because of You
TTITLE6=Tab Smith - Ace High
TTITLE7=Jimmy Coe - After Hours Joint
TTITLE8=Jimmy Coe - Fast Blues
TTITLE9=Doc Sausage - Sausage Rock
TTITLE10=Fred Jackson - Sentimental Blues
TTITLE11=Fred Jackson - Duck Fever
TTITLE12=Chris Woods - Cool One - Groove Two
TTITLE13=Fats Noel - You Belong to Me
TTITLE14=Fats Noel - Duck Soup
TTITLE15=Fats Noel - Wish You Were Here
TTITLE16=Fats Noel - High Tide
TTITLE17=Paul Bascomb - Pink Cadillac
TTITLE18=Paul Bascomb - Blues and the Beat
TTITLE19=Paul Bascomb - More Blues - More Beat
TTITLE20=Jimmy Forrest - My Buddy
TTITLE21=Jimmy Forrest - Flight 3-D
EXTD=
EXTT0=
EXTT1=
EXTT2=
EXTT3=
EXTT4=
EXTT5=
EXTT6=
EXTT7=
EXTT8=
EXTT9=
EXTT10=
EXTT11=
EXTT12=
EXTT13=
EXTT14=
EXTT15=
EXTT16=
EXTT17=
EXTT18=
EXTT19=
EXTT20=
EXTT21=
PLAYORDER=
